      <svg width="1207" fill="#000000" height="590" viewBox="0 0 1207 590" xmlns="http://www.w3.org/2000/svg">
        <path d="M283 142.5C283 114.514 274.701 87.1564 259.153 63.8868C243.605 40.6173 221.505 22.4808 195.65 11.771C169.794 1.06125 141.343 -1.74093 113.895 3.71888C86.4464 9.17869 61.2335 22.6553 41.4444 42.4444C21.6553 62.2335 8.17869 87.4464 2.71888 114.895C-2.74093 142.343 0.0612463 170.794 10.771 196.65C21.4808 222.505 39.6173 244.605 62.8868 260.153C86.1564 275.701 113.514 284 141.5 284V142.5H283Z"/>
        <path d="M283 448.5C283 476.486 274.701 503.844 259.153 527.113C243.605 550.383 221.505 568.519 195.65 579.229C169.794 589.939 141.343 592.741 113.895 587.281C86.4464 581.821 61.2335 568.345 41.4444 548.556C21.6553 528.766 8.17869 503.554 2.71888 476.105C-2.74093 448.657 0.0612463 420.206 10.771 394.35C21.4808 368.495 39.6173 346.395 62.8868 330.847C86.1564 315.299 113.514 307 141.5 307V448.5H283Z"/>
        <path d="M924 141.5C924 113.514 932.299 86.1564 947.847 62.8868C963.395 39.6173 985.495 21.4808 1011.35 10.771C1037.21 0.0612459 1065.66 -2.74093 1093.11 2.71888C1120.55 8.17869 1145.77 21.6553 1165.56 41.4444C1185.34 61.2335 1198.82 86.4464 1204.28 113.895C1209.74 141.343 1206.94 169.794 1196.23 195.65C1185.52 221.505 1167.38 243.605 1144.11 259.153C1120.84 274.701 1093.49 283 1065.5 283V141.5H924Z"/>
        <path d="M591 142.5C591 114.514 582.701 87.1564 567.153 63.8868C551.605 40.6173 529.505 22.4808 503.65 11.771C477.794 1.06125 449.343 -1.74093 421.895 3.71888C394.446 9.17869 369.234 22.6553 349.444 42.4444C329.655 62.2335 316.179 87.4464 310.719 114.895C305.259 142.343 308.061 170.794 318.771 196.65C329.481 222.505 347.617 244.605 370.887 260.153C394.156 275.701 421.514 284 449.5 284V142.5H591Z"/>
        <path d="M616 142.5C616 114.514 624.299 87.1564 639.847 63.8868C655.395 40.6173 677.495 22.4808 703.35 11.771C729.206 1.06125 757.657 -1.74093 785.105 3.71888C812.554 9.17869 837.766 22.6553 857.556 42.4444C877.345 62.2335 890.821 87.4464 896.281 114.895C901.741 142.343 898.939 170.794 888.229 196.65C877.519 222.505 859.383 244.605 836.113 260.153C812.844 275.701 785.486 284 757.5 284V142.5H616Z"/>
        <path d="M308 448.5C308 476.486 316.299 503.844 331.847 527.113C347.395 550.383 369.495 568.519 395.35 579.229C421.206 589.939 449.657 592.741 477.105 587.281C504.554 581.821 529.766 568.345 549.556 548.556C569.345 528.766 582.821 503.554 588.281 476.105C593.741 448.657 590.939 420.206 580.229 394.35C569.519 368.495 551.383 346.395 528.113 330.847C504.844 315.299 477.486 307 449.5 307V448.5H308Z"/>
        <path d="M899 448.5C899 476.486 890.701 503.844 875.153 527.113C859.605 550.383 837.505 568.519 811.65 579.229C785.794 589.939 757.343 592.741 729.895 587.281C702.446 581.821 677.234 568.345 657.444 548.556C637.655 528.766 624.179 503.554 618.719 476.105C613.259 448.657 616.061 420.206 626.771 394.35C637.481 368.495 655.617 346.395 678.887 330.847C702.156 315.299 729.514 307 757.5 307V448.5H899Z"/>
        <path d="M924 448.5C924 476.486 932.299 503.844 947.847 527.113C963.395 550.383 985.495 568.519 1011.35 579.229C1037.21 589.939 1065.66 592.741 1093.11 587.281C1120.55 581.821 1145.77 568.345 1165.56 548.556C1185.34 528.766 1198.82 503.554 1204.28 476.105C1209.74 448.657 1206.94 420.206 1196.23 394.35C1185.52 368.495 1167.38 346.395 1144.11 330.847C1120.84 315.299 1093.49 307 1065.5 307V448.5H924Z"/>
        </svg>